<?xml version="1.0" encoding="UTF-8" standalone="no"?>
<!-- Created with Inkscape (http://www.inkscape.org/) -->

<svg
   xmlns:dc="http://purl.org/dc/elements/1.1/"
   xmlns:cc="http://creativecommons.org/ns#"
   xmlns:rdf="http://www.w3.org/1999/02/22-rdf-syntax-ns#"
   xmlns:svg="http://www.w3.org/2000/svg"
   xmlns="http://www.w3.org/2000/svg"
   xmlns:sodipodi="http://sodipodi.sourceforge.net/DTD/sodipodi-0.dtd"
   xmlns:inkscape="http://www.inkscape.org/namespaces/inkscape"
   width="210mm"
   height="210mm"
   viewBox="0 0 210 210"
   version="1.1"
   id="svg1403"
   inkscape:version="0.92.4 (5da689c313, 2019-01-14)"
   sodipodi:docname="black_rabbit.svg"
   inkscape:export-filename="C:\Users\mel\AppData\Local\Packages\CanonicalGroupLimited.UbuntuonWindows_79rhkp1fndgsc\LocalState\rootfs\home\gloria\PROJECTS\GLORIA\Fibonacci\black_rabbit.png"
   inkscape:export-xdpi="96"
   inkscape:export-ydpi="96">
  <defs
     id="defs1397">
    <clipPath
       clipPathUnits="userSpaceOnUse"
       id="clipPath1961">
      <rect
         style="opacity:1;fill:#000000;fill-opacity:1;stroke:#000000;stroke-width:0.53023654;stroke-miterlimit:4;stroke-dasharray:none;stroke-dashoffset:0;stroke-opacity:1"
         id="rect1963"
         width="159.50595"
         height="144.30322"
         x="26.458332"
         y="87.684868" />
    </clipPath>
    <clipPath
       clipPathUnits="userSpaceOnUse"
       id="clipPath1970">
      <rect
         style="opacity:1;fill:#000000;fill-opacity:1;stroke:#000000;stroke-width:0.53057355;stroke-miterlimit:4;stroke-dasharray:none;stroke-dashoffset:0;stroke-opacity:1"
         id="rect1972"
         width="155.04102"
         height="143.83661"
         x="28.033569"
         y="55.438259" />
    </clipPath>
    <clipPath
       clipPathUnits="userSpaceOnUse"
       id="clipPath1990">
      <rect
         style="opacity:1;fill:#000000;fill-opacity:1;stroke:#000000;stroke-width:0.52899998;stroke-miterlimit:4;stroke-dasharray:none;stroke-dashoffset:0;stroke-opacity:1"
         id="rect1992"
         width="227.02957"
         height="207.82594"
         x="-14.509409"
         y="28.575943" />
    </clipPath>
  </defs>
  <sodipodi:namedview
     id="base"
     pagecolor="#ffffff"
     bordercolor="#666666"
     borderopacity="1.0"
     inkscape:pageopacity="0.0"
     inkscape:pageshadow="2"
     inkscape:zoom="0.62"
     inkscape:cx="-386.72811"
     inkscape:cy="560"
     inkscape:document-units="mm"
     inkscape:current-layer="layer1"
     showgrid="false"
     inkscape:window-width="1920"
     inkscape:window-height="1001"
     inkscape:window-x="-9"
     inkscape:window-y="-9"
     inkscape:window-maximized="1" />
  <metadata
     id="metadata1400">
    <rdf:RDF>
      <cc:Work
         rdf:about="">
        <dc:format>image/svg+xml</dc:format>
        <dc:type
           rdf:resource="http://purl.org/dc/dcmitype/StillImage" />
        <dc:title></dc:title>
      </cc:Work>
    </rdf:RDF>
  </metadata>
  <g
     inkscape:label="Layer 1"
     inkscape:groupmode="layer"
     id="layer1"
     transform="translate(0,-87)">
    <path
       style="fill:#000000;stroke-width:0.26458335"
       d="m -30.725811,268.83468 c 1.085129,-3.41 -2.659761,-11.65002 2.902059,-10.58333 87.227095,0 174.454192,0 261.681282,0 0,7.05555 0,14.11111 0,21.16666 -88.19445,0 -176.388893,0 -264.583341,0 0,-3.52778 0,-7.05555 0,-10.58333 z m 10.756633,3.22032 c -1.580327,-4.49546 0.02576,2.08234 0,0 z m 10.073793,0.32399 c -1.047667,-0.55604 -0.247254,0.59624 0,0 z m 10.32222004,-4.1443 c -0.547501,-2.62696 -1.098448,7.99744 0,0 z m 5.29293396,3.89702 c 2.085694,-3.4131 -4.459484,-5.64289 0.432192,-6.00571 -9.845662,-0.26723 6.39902,5.99984 -3.459925,5.78362 l 1.846397,0.59789 1.181351,-0.37584 z m 4.300254,0.0411 c -0.906995,-4.61424 -1.622454,-9.76265 -1.570202,-0.66 l 1.504059,1.00925 0.06614,-0.34925 z m 3.439584,0.10975 c 8.499758,-6.51445 -9.663224,-5.94476 0,0 z m -1.823186,-2.06147 c 5.150548,-9.50618 2.558848,8.05135 0,0 z m 7.66566,2.05316 c -4.894218,-1.07989 2.677492,-8.49305 -3.09939,-2.39029 -0.159528,1.61321 1.606981,2.96716 3.09939,2.39029 z m 2.054415,-1.03346 c 0.98308,-5.97989 -1.547948,-5.95951 -0.200024,1.29805 l 0.20002,-1.29805 z m 3.046508,0.96732 c -2.214898,-3.82244 -1.03624,-6.75897 -1.653583,-1.27765 1.368387,-0.52375 0.49374,2.82787 1.653583,1.27765 z m -38.065062,-0.1954 c -0.669565,-0.48392 -1.053402,0.85231 0,0 z m 6.635355,-0.15422 c 0.915669,-6.5442 -1.58081,-6.5587 0,0 z m 2.398033,-0.13261 c 0.743682,-8.4077 -1.718696,-0.97107 0,0 z m 2.732135,-0.0307 c -0.425077,-9.7147 -0.101872,1.22055 0,0 z m 165.110315,0.31448 c -0.676,-0.94916 -0.676,0.94916 0,0 z m 12.4225,-1.84687 c -0.67287,1.79251 0.32492,2.53928 0,0 z m 5.2133,1.62761 c -0.60284,-3.82969 -0.8695,-1.10123 0,0 z m 16.80361,-0.79587 c -0.24339,-4.51184 -0.4341,4.31488 0,0 z m 1.72727,0.29255 c -0.43877,0.33874 0.39171,1.74389 0,0 z m 1.59401,-0.79515 c -0.39089,0.6084 0.37584,2.90334 0,0 z m 4.50649,1.58957 c 1.01712,-3.92299 -1.17284,-2.0227 -0.13229,0.14827 1.59388,-0.0741 1.40013,0.007 0.13229,-0.14827 z m 2.77813,0.0175 c 0.16058,-4.77889 -1.79419,-0.1495 0,0 z m 10.92739,-1.17398 c 2.22092,-5.06385 -2.71553,4.8494 0,0 z m 3.36375,1.16297 c -2.96821,-0.41914 -0.54192,0.41461 0,0 z m -239.301775,-0.74091 c -1.266355,-2.06794 0.862879,2.26298 0,0 z m 182.290855,0.29239 c -1.21732,-1.1759 0.546,1.2535 0,0 z m 2.91042,0 c -1.21732,-1.1759 0.546,1.2535 0,0 z m 2.52421,-0.45035 c 0.5469,-4.21412 -0.70494,2.22856 0,0 z m 1.85614,0.41225 c -0.84773,-1.04195 0.28942,1.31183 0,0 z m 1.71532,-0.79587 c -1.38595,-3.25976 0.1476,3.10026 0,0 z m 4.76663,0.26199 c -1.28584,-2.38095 -0.10948,2.5506 0,0 z m 3.04305,0.53388 c -0.84773,-1.04195 0.28942,1.31183 0,0 z m 1.68997,-0.27511 c 0.25241,-1.14274 -1.33147,2.03514 0,0 z m 1.6026,0.31321 c -1.21734,-1.17592 0.54596,1.2535 0,0 z m 2.53474,-0.6881 c 2.58263,0.69025 -2.81591,-2.01052 0,0 z m 4.07984,0.68815 c -1.21732,-1.1759 0.546,1.2535 0,0 z m 17.57003,-0.35742 c -0.7674,-1.59913 0.42613,2.36391 0,0 z m 3.63111,-0.0661 c 0.80273,-1.72021 -1.5406,2.19104 0,0 z m 3.93635,-0.30022 c -0.3962,-1.39213 -0.14327,2.79082 0,0 z m 7.19739,0.98999 c -0.12059,-0.7105 -1.56455,0.23721 0,0 z m 1.22704,-1.1071 c 0.28253,-2.25579 -1.44021,3.84592 0,0 z M -11.940394,271.216 c -1.27956,-1.91395 0.680248,1.8807 0,0 z m 234.685424,-1.62064 c -0.15749,-1.09984 -2.99601,4.31338 0,0 z m -27.98261,0.96713 c -0.12214,-1.91886 -0.46653,2.27229 0,0 z m 29.22338,-0.33875 c -0.25122,-2.59045 -0.11041,3.36245 0,0 z m -57.92775,0.54523 c -2.04934,-0.41172 -0.39347,0.42554 0,0 z m 0.63988,-0.67265 c -0.85561,-0.33867 0.95759,1.71953 0,0 z m 15.6426,0.32549 c -0.21224,-1.43121 -0.53596,1.76049 0,0 z m -13.99872,-0.14565 c -0.26226,-0.97312 -0.54454,1.34693 0,0 z m 4.49792,0 c -0.26227,-0.97312 -0.54456,1.34693 0,0 z m 11.15472,-0.10097 c -1.19516,-1.13021 0.34655,1.3187 0,0 z m 1.54528,0.10097 c -0.26227,-0.97312 -0.54456,1.34693 0,0 z m 14.18655,0.16163 c -0.50209,-1.33225 -0.82181,0.95953 0,0 z m 15.875,-0.1479 c -0.22897,-1.39756 -0.62801,1.38825 0,0 z M -21.38027,268.4227 c -2.638899,-6.61914 2.045934,6.94976 0,0 z m 7.848325,1.11868 c 0.324896,0.60413 -4.900911,-0.27778 -3.312687,-1.37257 -2.789711,3.37865 2.409446,2.03906 3.312687,1.37257 z m 1.699976,-1.19724 c 2.361491,-3.15854 -2.435358,5.59149 0,0 z m 221.972679,1.68117 c -0.62799,-1.38828 -0.22901,1.39755 0,0 z m 6.58505,0.22164 c -1.45702,-0.42943 -0.26443,0.46307 0,0 z m -235.167817,-1.41227 c -0.311807,-1.5211 -0.863434,3.54865 0,0 z m 232.984997,0.11668 c -4.89419,-1.38371 -0.11729,0.77071 0,0 z m 1.71071,-0.077 c -1.79822,0.68628 0.12874,0.69061 0,0 z m 9.54496,0.24252 c -1.19516,-1.13021 0.34655,1.3187 0,0 z m -17.87025,-0.1655 c -0.81176,-0.93796 -0.15594,1.30386 0,0 z m 2.24896,0.1479 c -0.32001,-0.96736 -0.65253,0.94254 0,0 z m 9.92187,-0.26458 c -3.43562,-0.70829 -1.981,0.24159 0,0 z M -9.101635,267.61649 c -1.047667,-0.55604 -0.247254,0.59624 0,0 z m 86.458118,-44.27177 c -9.428883,-0.70352 1.072088,-19.66471 -11.743398,-9.70174 -10.727556,0.8344 -21.502493,2.20799 -31.664785,5.59584 -3.644906,-6.3669 0.465128,-16.86849 6.208849,-19.25891 2.209181,-1.72667 7.256637,-3.57418 8.669873,-4.09654 4.509713,-1.12663 8.758732,-0.67964 10.066266,-6.58056 -1.48873,-7.34382 -6.806487,-10.42442 -10.962128,-15.362 -5.437168,-4.66655 -9.436013,-11.23451 -17.342167,-12.48863 -7.27104,-2.48288 -18.463378,2.19976 -23.444933,-2.74375 -5.228701,-4.66959 -3.842717,-16.8054 -1.209392,-23.88323 0.624897,-3.65567 4.408367,-9.52275 5.890796,-13.42683 1.701067,-1.93402 1.616231,-3.09879 3.536684,-4.48744 1.522814,-2.35386 6.091316,-6.87594 8.741145,-8.68426 1.812979,-1.53283 6.526947,-5.3052 5.119029,-2.50958 -5.02776,3.56831 -18.925679,21.63298 -8.372459,8.73327 8.785616,-4.75963 9.683671,-12.48215 12.559857,-21.922832 1.625692,-4.81033 4.186042,-9.41132 6.923527,-14.493761 0.691373,-2.65323 3.350355,-7.121573 4.893433,-9.255958 1.762016,-4.311968 4.245471,-8.647206 6.8813,-12.268178 2.074088,-4.423188 3.604719,-5.77802 7.529822,-9.247858 2.663666,-1.244473 3.651053,0.537594 4.291066,2.936885 1.907513,4.343783 -1.711918,13.708708 -0.208683,13.709957 2.839172,-3.690733 3.398092,-4.47858 6.725751,-8.643367 2.514084,-3.186858 1.991035,-2.990023 5.190733,-6.031655 1.451268,-2.998251 7.375518,-8.126369 7.147408,-8.203728 2.582766,-2.692416 4.385725,-4.203169 7.208662,-6.206922 4.187247,-4.666865 13.214241,-4.532067 15.181321,0.442902 4.81048,11.060289 -0.19042,23.496146 -6.321198,32.941482 -4.851897,7.413534 -11.014769,12.918131 -17.240535,18.964511 -5.774713,6.10389 -12.729852,11.73539 -19.395233,17.005612 -8.521864,2.79978 -2.094091,4.13211 1.373912,7.10426 4.834502,2.08087 4.800663,5.31526 8.547156,5.5754 6.080748,-1.6948 12.174196,-3.24554 17.343851,-5.24567 3.781404,-0.88948 12.118817,-3.12044 17.977867,-3.68412 6.35455,-1.54625 13.76297,-0.58212 18.99165,-0.76805 5.77796,1.17777 13.51263,2.29454 18.92038,5.71448 3.97607,1.37649 6.21121,2.8598 9.57632,5.96407 2.59811,1.41917 4.46009,3.95002 6.34581,6.22687 5.56284,6.33094 8.2125,14.90305 9.10671,23.86599 1.75119,7.57445 -3.82051,16.84043 5.22776,8.99266 5.8601,-1.22792 6.76684,0.0737 10.67017,3.38503 0.78931,7.04852 4.17438,9.48286 11.24162,10.63741 3.28244,3.13082 1.76706,9.8343 -0.7557,12.81765 -6.37782,5.67829 1.1795,15.87512 -6.39003,22.42343 -4.51528,7.50542 -14.36771,2.19146 -16.43317,-1.12006 -0.82086,14.86546 -14.06869,3.56998 -17.85301,0.65291 -10.94075,10.13626 -28.6269,11.82376 -42.89685,6.92653 -13.647418,-1.22312 -22.137737,12.4603 -35.855057,9.69848 z M 36.346066,206.64169 c 3.877775,-4.13334 25.272653,-10.31184 20.984964,-10.45632 -5.556514,1.0624 -11.804339,3.10139 -16.049292,5.55211 -0.768869,-0.19285 -8.253574,7.6208 -4.935672,4.90421 z m 2.969212,-3.43701 c 2.386163,-1.81936 -2.126484,2.06436 0,0 z M 192.16933,194.526 c -3.82763,-10.67635 -0.62808,4.50956 0,0 z m 4.4009,-18.75426 c -4.49073,-5.91357 -13.19343,0.83225 -11.34132,-10.47549 -1.46961,-3.53192 -6.83223,-7.27601 -12.3549,-3.88531 -4.76687,4.48953 -4.61,8.19356 1.46808,1.90899 9.69758,-4.74493 10.20481,7.80614 13.80871,10.23838 2.10191,-1.21423 10.2347,5.57135 8.41943,2.21343 z m -23.03437,-13.82107 c -0.59354,-0.92381 1.5301,0.79841 0,0 z m 3.12206,-1.77589 c 1.15978,-0.379 0.11471,0.50937 0,0 z m -7.43996,-6.09808 c -0.43877,0.33874 0.39171,1.74389 0,0 z m -0.0483,-2.43801 c -0.39503,-8.05204 -3.34894,-17.88372 -8.38558,-23.08822 -2.42281,-5.47607 -8.88815,-9.29136 -13.81971,-12.18052 -6.36949,-2.85928 -14.86823,-6.41496 -22.89553,-6.56506 -9.67447,-0.73145 -18.64817,1.22539 -27.593128,2.95298 -7.345434,2.03346 -13.971909,4.36571 -21.966252,6.25068 -8.565589,2.26167 -13.799858,-10.2505 -19.096448,-11.15051 -0.760997,3.9028 11.626295,9.16807 14.100818,13.96665 7.707574,-1.67909 15.944708,-5.61571 24.208914,-6.88372 21.360196,-4.97406 47.246056,-5.37563 63.543216,11.68387 6.58105,6.24143 10.3889,16.27886 11.75345,25.52872 l 0.15026,-0.51474 z m -4.10382,-14.30193 c -0.43667,-0.98083 1.33752,0.99637 0,0 z m -10.66531,-15.19655 c -0.79868,-1.77492 1.65351,1.36141 0,0 z m -87.203944,-4.46079 c -0.916399,-1.59002 1.513442,1.71587 0,0 z m -4.112027,-3.76669 c -0.995869,-1.40876 1.846748,1.43357 0,0 z m -1.363631,-1.24836 c -1.747093,-2.0607 2.083543,2.05518 0,0 z m 44.342842,-1.52136 c 2.29932,-1.14377 -0.64596,1.05026 0,0 z m 14.23789,-1.23907 c 1.15977,-0.379 0.11474,0.5093 0,0 z M 56.4657,109.04463 c -0.002,-1.22643 0.711807,0.86453 0,0 z m -44.091573,18.03953 c 1.79812,-3.99628 -2.438487,4.15327 0,0 z m 1.892438,-3.43958 c 4.836191,-8.20132 -3.546401,5.16756 0,0 z M 62.894064,70.361736 c 1.6055,-2.992228 -3.176509,4.363109 0,0 z m 1.625137,-2.283804 c 6.778389,-8.651291 -2.487945,2.159582 -2e-6,0 z m 4.110858,-5.419815 c 6.000108,-7.717943 12.742152,-15.637636 20.235334,-21.89096 -1.201448,-1.569129 13.406587,-5.509274 12.394997,-5.187952 -2.199838,-3.272806 -6.70764,-0.496639 -9.484114,1.243546 -4.043946,3.253061 -7.12015,6.754805 -11.181914,10.572915 -2.947051,3.42174 -14.097732,16.631612 -11.964303,15.262451 z M 78.811692,49.651481 c 0.676754,-1.079283 1.071003,-0.0017 0,0 z m 2.38125,-2.620425 c 1.749425,-1.916469 2.519249,-2.094959 0,0 z m 6.879167,-6.940368 c 0.646532,-1.13438 1.012514,0.250158 0,0 z M 62.67351,53.243853 c 1.245932,-10.254772 -10.827083,4.241628 -2.404702,-1.76437 2.478152,-0.319322 2.091483,7.936963 2.404702,1.76437 z M 61.2282,50.836296 c -0.002,-1.226435 0.711807,0.864528 0,0 z m 43.09688,-9.656675 c -0.93943,-2.200666 0.43456,2.743854 0,0 z M 103.177,38.217838 c -3.533908,-5.145416 2.47249,6.051938 0,0 z m -17.905268,0.788794 c 0.19961,-1.096829 -1.2755,1.468023 0,0 z M 195.08519,196.85041 c -0.32321,-1.32699 0.86115,1.00766 0,0 z m 2.93259,-24.30578 c -0.002,-1.22641 0.71182,0.86454 0,0 z m -9.28259,-6.38588 c -0.32323,-1.32702 0.86115,1.00765 0,0 z m -1.8242,-4.13818 c -0.33101,-1.15801 0.91877,1.23697 0,0 z m -7.15888,-4.83703 c 0.66962,-0.48386 1.05333,0.85233 0,0 z m -13.39708,-24.54313 c -0.80154,-1.23066 1.46,1.60344 0,0 z m -0.52917,-1.05833 c -0.91823,-1.12767 1.72899,1.36439 0,0 z m -15.61042,-16.40417 c -0.91822,-1.12767 1.72896,1.36439 0,0 z M 25.365857,109.57113 c 0.463684,-1.39159 0.411289,0.97228 0,0 z m 110.595833,-0.80937 c -0.65602,-1.04207 1.93898,1.10937 0,0 z m -17.61037,-2.52813 c -1.35409,-1.06344 2.17697,1.13491 0,0 z M 49.274621,59.947657 c -1.663576,-1.592346 1.459329,0.899635 0,0 z m 56.907199,-6.24228 c -0.14756,-1.65277 0.83891,1.030165 0,0 z M 71.932525,52.041034 c 0.894109,-1.073344 1.251069,-0.730751 0,0 z m 5.55625,-6.26572 c 0.762058,-0.504185 0.617458,0.90879 0,0 z m 29.939695,-1.836468 c 0.23154,-1.192582 0.23154,1.192582 0,0 z M 79.870025,43.601037 c 0.117032,-0.795697 3.445,-1.569377 0,0 z m 6.438194,-6.926593 c 0.676514,-0.916372 0.05672,1.204501 0,0 z m 1.730139,-1.136119 c -0.801542,-1.230669 1.459991,1.603438 0,0 z m 14.816662,-2.910416 c -0.9182,-1.127666 1.72896,1.364388 0,0 z m -9.491245,-0.434713 c 0.120587,-0.710416 1.564577,0.237121 0,0 z"
       id="path1985"
       inkscape:connector-curvature="0"
       clip-path="url(#clipPath1990)"
       transform="translate(5.0185484,63.909685)" />
  </g>
</svg>
